<svg xmlns="http://www.w3.org/2000/svg" width="1600" height="900" viewBox="0 0 1600 900" role="img" aria-labelledby="title desc">
  <title id="title">RoamBench Product Social Preview</title>
  <desc id="desc">A product-style social preview for RoamBench showing a desktop multi-view workspace, split terminal panes, a file panel, and a phone reconnect view.</desc>
  <defs>
    <linearGradient id="bg" x1="120" y1="80" x2="1480" y2="820" gradientUnits="userSpaceOnUse">
      <stop offset="0" stop-color="#f8fafc"/>
      <stop offset="1" stop-color="#e2f7f2"/>
    </linearGradient>
    <linearGradient id="hero" x1="0" y1="0" x2="1" y2="1">
      <stop offset="0" stop-color="#0f172a"/>
      <stop offset="1" stop-color="#162337"/>
    </linearGradient>
    <linearGradient id="accent" x1="0" y1="0" x2="1" y2="1">
      <stop offset="0" stop-color="#36d399"/>
      <stop offset="1" stop-color="#2dd4bf"/>
    </linearGradient>
  </defs>

  <rect width="1600" height="900" fill="url(#bg)"/>
  <circle cx="1422" cy="136" r="124" fill="#d7f7ec"/>
  <circle cx="128" cy="748" r="156" fill="#d9eefc" opacity="0.7"/>

  <g transform="translate(78 70)">
    <rect x="0" y="0" width="1444" height="136" rx="36" fill="#ffffff" opacity="0.9"/>
    <rect x="34" y="28" width="80" height="80" rx="24" fill="url(#hero)"/>
    <rect x="50" y="44" width="22" height="22" rx="7" fill="#163047"/>
    <rect x="78" y="44" width="22" height="22" rx="7" fill="#163047"/>
    <rect x="50" y="72" width="22" height="22" rx="7" fill="#163047"/>
    <rect x="78" y="72" width="22" height="22" rx="7" fill="#163047"/>
    <path d="M54 82C54 66 66 54 82 54C91 54 98 58 98 67C98 75 93 81 85 82C78 83 73 80 73 75C73 69 78 65 83 65C88 65 92 68 94 72"
          fill="none"
          stroke="url(#accent)"
          stroke-linecap="round"
          stroke-linejoin="round"
          stroke-width="6"/>
    <circle cx="54" cy="82" r="5" fill="#36d399"/>
    <path d="M91 69L98 74L92 81" fill="none" stroke="#2dd4bf" stroke-linecap="round" stroke-linejoin="round" stroke-width="5"/>

    <text x="138" y="66" fill="#0f172a" font-family="Segoe UI, Helvetica, Arial, sans-serif" font-size="54" font-weight="700" letter-spacing="-1.5">RoamBench</text>
    <text x="140" y="104" fill="#475569" font-family="Segoe UI, Helvetica, Arial, sans-serif" font-size="28" font-weight="600">Reconnect to terminal-first coding workflows from your phone.</text>

    <rect x="1048" y="30" width="150" height="32" rx="16" fill="#e6fff6"/>
    <text x="1075" y="52" fill="#0f5132" font-family="Segoe UI, Helvetica, Arial, sans-serif" font-size="18" font-weight="700">1 / 2 / 4 views</text>
    <rect x="1214" y="30" width="162" height="32" rx="16" fill="#ecfeff"/>
    <text x="1238" y="52" fill="#155e75" font-family="Segoe UI, Helvetica, Arial, sans-serif" font-size="18" font-weight="700">multi-view tabs</text>
    <rect x="1048" y="74" width="150" height="32" rx="16" fill="#fff7ed"/>
    <text x="1071" y="96" fill="#9a3412" font-family="Segoe UI, Helvetica, Arial, sans-serif" font-size="18" font-weight="700">tmux resume</text>
    <rect x="1214" y="74" width="162" height="32" rx="16" fill="#eef2ff"/>
    <text x="1236" y="96" fill="#3730a3" font-family="Segoe UI, Helvetica, Arial, sans-serif" font-size="18" font-weight="700">desktop + phone</text>
  </g>

  <g transform="translate(78 238)">
    <rect x="0" y="0" width="1070" height="590" rx="34" fill="#ffffff"/>
    <rect x="0" y="0" width="1070" height="74" rx="34" fill="#0f172a"/>
    <rect x="24" y="23" width="12" height="12" rx="6" fill="#fb7185"/>
    <rect x="44" y="23" width="12" height="12" rx="6" fill="#f59e0b"/>
    <rect x="64" y="23" width="12" height="12" rx="6" fill="#36d399"/>
    <text x="98" y="42" fill="#f8fafc" font-family="Segoe UI, Helvetica, Arial, sans-serif" font-size="26" font-weight="700">RoamBench</text>
    <rect x="854" y="18" width="108" height="38" rx="19" fill="#14253a"/>
    <text x="885" y="43" fill="#d8fdf1" font-family="Segoe UI, Helvetica, Arial, sans-serif" font-size="18" font-weight="700">Memory</text>
    <rect x="976" y="18" width="66" height="38" rx="19" fill="#14253a"/>
    <text x="1000" y="43" fill="#d8fdf1" font-family="Segoe UI, Helvetica, Arial, sans-serif" font-size="18" font-weight="700">Files</text>

    <rect x="24" y="94" width="120" height="42" rx="18" fill="#0f172a"/>
    <rect x="154" y="102" width="108" height="34" rx="16" fill="#dce9f6"/>
    <rect x="270" y="102" width="108" height="34" rx="16" fill="#dce9f6"/>
    <rect x="388" y="102" width="108" height="34" rx="16" fill="#dce9f6"/>
    <text x="55" y="121" fill="#f8fafc" font-family="Segoe UI, Helvetica, Arial, sans-serif" font-size="18" font-weight="700">View 1</text>
    <text x="184" y="124" fill="#516274" font-family="Segoe UI, Helvetica, Arial, sans-serif" font-size="16" font-weight="700">View 2</text>
    <text x="300" y="124" fill="#516274" font-family="Segoe UI, Helvetica, Arial, sans-serif" font-size="16" font-weight="700">View 3</text>
    <text x="418" y="124" fill="#516274" font-family="Segoe UI, Helvetica, Arial, sans-serif" font-size="16" font-weight="700">View 4</text>

    <rect x="878" y="100" width="42" height="30" rx="15" fill="#edf2f7"/>
    <rect x="926" y="100" width="42" height="30" rx="15" fill="#edf2f7"/>
    <rect x="974" y="100" width="42" height="30" rx="15" fill="#36d399"/>
    <text x="892" y="120" fill="#334155" font-family="Segoe UI, Helvetica, Arial, sans-serif" font-size="15" font-weight="700">1</text>
    <text x="940" y="120" fill="#334155" font-family="Segoe UI, Helvetica, Arial, sans-serif" font-size="15" font-weight="700">2</text>
    <text x="988" y="120" fill="#0f172a" font-family="Segoe UI, Helvetica, Arial, sans-serif" font-size="15" font-weight="700">4</text>

    <rect x="24" y="154" width="232" height="412" rx="22" fill="#f7fafc"/>
    <text x="46" y="189" fill="#475569" font-family="Segoe UI, Helvetica, Arial, sans-serif" font-size="16" font-weight="700">~/projects / roambench</text>
    <rect x="44" y="208" width="192" height="34" rx="12" fill="#ffffff"/>
    <text x="60" y="230" fill="#94a3b8" font-family="Segoe UI, Helvetica, Arial, sans-serif" font-size="15" font-weight="600">Filter current directory</text>
    <text x="46" y="278" fill="#0f172a" font-family="Segoe UI, Helvetica, Arial, sans-serif" font-size="16" font-weight="700">README.md</text>
    <text x="46" y="316" fill="#0f172a" font-family="Segoe UI, Helvetica, Arial, sans-serif" font-size="16" font-weight="700">docs/branding/</text>
    <text x="46" y="354" fill="#0f172a" font-family="Segoe UI, Helvetica, Arial, sans-serif" font-size="16" font-weight="700">configs/roambench.toml</text>
    <text x="46" y="392" fill="#0f172a" font-family="Segoe UI, Helvetica, Arial, sans-serif" font-size="16" font-weight="700">web/index.html</text>
    <text x="46" y="430" fill="#0f172a" font-family="Segoe UI, Helvetica, Arial, sans-serif" font-size="16" font-weight="700">web/js/app.js</text>
    <text x="46" y="468" fill="#64748b" font-family="Segoe UI, Helvetica, Arial, sans-serif" font-size="15" font-weight="600">New File   Save As   Copy</text>
    <text x="46" y="506" fill="#64748b" font-family="Segoe UI, Helvetica, Arial, sans-serif" font-size="15" font-weight="600">Upload   Download   Rename</text>

    <g transform="translate(278 154)">
      <rect x="0" y="0" width="372" height="196" rx="22" fill="#0f172a"/>
      <text x="24" y="32" fill="#d8fdf1" font-family="ui-monospace, SFMono-Regular, Menlo, Consolas, monospace" font-size="16" font-weight="700">Codex</text>
      <text x="24" y="66" fill="#8ee4c9" font-family="ui-monospace, SFMono-Regular, Menlo, Consolas, monospace" font-size="15">user@roambench:~/project$ codex run review</text>
      <text x="24" y="94" fill="#dbeafe" font-family="ui-monospace, SFMono-Regular, Menlo, Consolas, monospace" font-size="15">reviewing terminal reconnect behavior...</text>
      <text x="24" y="122" fill="#dbeafe" font-family="ui-monospace, SFMono-Regular, Menlo, Consolas, monospace" font-size="15">writing patch for workspace sync edge case</text>
      <text x="24" y="150" fill="#facc15" font-family="ui-monospace, SFMono-Regular, Menlo, Consolas, monospace" font-size="15">status: running</text>
    </g>

    <g transform="translate(670 154)">
      <rect x="0" y="0" width="372" height="196" rx="22" fill="#0f172a"/>
      <text x="24" y="32" fill="#d8fdf1" font-family="ui-monospace, SFMono-Regular, Menlo, Consolas, monospace" font-size="16" font-weight="700">Claude Code</text>
      <text x="24" y="66" fill="#8ee4c9" font-family="ui-monospace, SFMono-Regular, Menlo, Consolas, monospace" font-size="15">user@roambench:~/project$ claude-code fix docs</text>
      <text x="24" y="94" fill="#dbeafe" font-family="ui-monospace, SFMono-Regular, Menlo, Consolas, monospace" font-size="15">updating release notes and launch copy...</text>
      <text x="24" y="122" fill="#dbeafe" font-family="ui-monospace, SFMono-Regular, Menlo, Consolas, monospace" font-size="15">screenshot checklist aligned with roadmap</text>
      <text x="24" y="150" fill="#36d399" font-family="ui-monospace, SFMono-Regular, Menlo, Consolas, monospace" font-size="15">status: attached</text>
    </g>

    <g transform="translate(278 370)">
      <rect x="0" y="0" width="372" height="196" rx="22" fill="#0f172a"/>
      <text x="24" y="32" fill="#d8fdf1" font-family="ui-monospace, SFMono-Regular, Menlo, Consolas, monospace" font-size="16" font-weight="700">Kimi-CLI</text>
      <text x="24" y="66" fill="#8ee4c9" font-family="ui-monospace, SFMono-Regular, Menlo, Consolas, monospace" font-size="15">user@roambench:~/project$ kimi-cli summarize</text>
      <text x="24" y="94" fill="#dbeafe" font-family="ui-monospace, SFMono-Regular, Menlo, Consolas, monospace" font-size="15">collecting notes from recent sessions...</text>
      <text x="24" y="122" fill="#dbeafe" font-family="ui-monospace, SFMono-Regular, Menlo, Consolas, monospace" font-size="15">workspace draft restored after refresh</text>
      <text x="24" y="150" fill="#a78bfa" font-family="ui-monospace, SFMono-Regular, Menlo, Consolas, monospace" font-size="15">status: queued</text>
    </g>

    <g transform="translate(670 370)">
      <rect x="0" y="0" width="372" height="196" rx="22" fill="#0f172a"/>
      <text x="24" y="32" fill="#d8fdf1" font-family="ui-monospace, SFMono-Regular, Menlo, Consolas, monospace" font-size="16" font-weight="700">OpenCode</text>
      <text x="24" y="66" fill="#8ee4c9" font-family="ui-monospace, SFMono-Regular, Menlo, Consolas, monospace" font-size="15">user@roambench:~/project$ opencode test</text>
      <text x="24" y="94" fill="#dbeafe" font-family="ui-monospace, SFMono-Regular, Menlo, Consolas, monospace" font-size="15">go test ./...                                         ok</text>
      <text x="24" y="122" fill="#dbeafe" font-family="ui-monospace, SFMono-Regular, Menlo, Consolas, monospace" font-size="15">node --check web/js/app.js                           ok</text>
      <text x="24" y="150" fill="#f97316" font-family="ui-monospace, SFMono-Regular, Menlo, Consolas, monospace" font-size="15">status: waiting for restart window</text>
    </g>
  </g>

  <g transform="translate(1194 292)">
    <rect x="0" y="0" width="278" height="500" rx="42" fill="#111827"/>
    <rect x="18" y="18" width="242" height="464" rx="32" fill="#f8fafc"/>
    <rect x="88" y="8" width="100" height="10" rx="5" fill="#111827"/>

    <rect x="34" y="38" width="210" height="44" rx="18" fill="#0f172a"/>
    <text x="70" y="66" fill="#f8fafc" font-family="Segoe UI, Helvetica, Arial, sans-serif" font-size="20" font-weight="700">RoamBench</text>
    <rect x="34" y="98" width="82" height="30" rx="14" fill="#0f172a"/>
    <rect x="124" y="104" width="64" height="24" rx="12" fill="#dae6f1"/>
    <rect x="194" y="104" width="40" height="24" rx="12" fill="#36d399"/>
    <text x="54" y="118" fill="#f8fafc" font-family="Segoe UI, Helvetica, Arial, sans-serif" font-size="13" font-weight="700">View 1</text>
    <text x="206" y="121" fill="#0f172a" font-family="Segoe UI, Helvetica, Arial, sans-serif" font-size="12" font-weight="700">2</text>

    <rect x="34" y="150" width="210" height="116" rx="20" fill="#0f172a"/>
    <text x="48" y="176" fill="#d8fdf1" font-family="ui-monospace, SFMono-Regular, Menlo, Consolas, monospace" font-size="13" font-weight="700">Codex</text>
    <text x="48" y="202" fill="#8ee4c9" font-family="ui-monospace, SFMono-Regular, Menlo, Consolas, monospace" font-size="12">user@phone$ codex status</text>
    <text x="48" y="226" fill="#dbeafe" font-family="ui-monospace, SFMono-Regular, Menlo, Consolas, monospace" font-size="12">workspace recovered</text>

    <rect x="34" y="280" width="210" height="116" rx="20" fill="#0f172a"/>
    <text x="48" y="306" fill="#d8fdf1" font-family="ui-monospace, SFMono-Regular, Menlo, Consolas, monospace" font-size="13" font-weight="700">Files</text>
    <text x="48" y="332" fill="#dbeafe" font-family="ui-monospace, SFMono-Regular, Menlo, Consolas, monospace" font-size="12">README.md</text>
    <text x="48" y="356" fill="#dbeafe" font-family="ui-monospace, SFMono-Regular, Menlo, Consolas, monospace" font-size="12">branding/social-preview.svg</text>

    <rect x="34" y="416" width="210" height="34" rx="17" fill="#e6fff6"/>
    <text x="78" y="439" fill="#0f5132" font-family="Segoe UI, Helvetica, Arial, sans-serif" font-size="14" font-weight="700">Reconnected on phone</text>
  </g>
</svg>
